<?xml version="1.0" encoding="UTF-8" standalone="no"?>
<!-- note: setting the viewBox at the bounding box of the PCB, for easier copy-pasting between boards -->
<svg xmlns="http://www.w3.org/2000/svg" version="1.1" viewBox="-2 0 70.6 53.3" width="70.6mm" height="53.3mm">
  <!-- PCB -->
  <path d="M 0,0 H 66.06 V 13 L 68.6,15.54 V 48.22 L 66.06,50.76 V 53.3 H 0 Z"
    fill="#1c1c1c"/>

  <!-- USB port -->
  <rect x="-1.27" y="26" width="5" height="7.5" fill="#ccc"/>

  <!-- Vin port -->
  <rect x="-2" y="40.9" width="14" height="8.6" fill="#333"/>

  <!-- female header pins -->
  <g transform="translate(44.47, 1.27)" fill="transparent">
    <rect width="20.32" height="2.54" fill="#4d4d4d"/>
    <g data-pin="D0" transform="translate(17.78, 0)">
      <rect x="0.27" y="0.27" width="2" height="2" fill="#d4af37"/>
      <rect width="2.54" height="2.54" class="area"/>
    </g>
    <g data-pin="D1" transform="translate(15.24, 0)">
      <rect x="0.27" y="0.27" width="2" height="2" fill="#d4af37"/>
      <rect width="2.54" height="2.54" class="area"/>
    </g>
    <g data-pin="D2" transform="translate(12.7, 0)">
      <rect x="0.27" y="0.27" width="2" height="2" fill="#d4af37"/>
      <rect width="2.54" height="2.54" class="area"/>
    </g>
    <g data-pin="D3" transform="translate(10.16, 0)">
      <rect x="0.27" y="0.27" width="2" height="2" fill="#d4af37"/>
      <rect width="2.54" height="2.54" class="area"/>
    </g>
    <g data-pin="D4" transform="translate(7.62, 0)">
      <rect x="0.27" y="0.27" width="2" height="2" fill="#d4af37"/>
      <rect width="2.54" height="2.54" class="area"/>
    </g>
    <g data-pin="D5" transform="translate(5.08, 0)">
      <rect x="0.27" y="0.27" width="2" height="2" fill="#d4af37"/>
      <rect width="2.54" height="2.54" class="area"/>
    </g>
    <g data-pin="D6" transform="translate(2.54, 0)">
      <rect x="0.27" y="0.27" width="2" height="2" fill="#d4af37"/>
      <rect width="2.54" height="2.54" class="area"/>
    </g>
    <g data-pin="D7" transform="translate(0, 0)">
      <rect x="0.27" y="0.27" width="2" height="2" fill="#d4af37"/>
      <rect width="2.54" height="2.54" class="area"/>
    </g>
  </g>
  <g transform="translate(17.8, 1.27)" fill="transparent">
    <rect width="25.4" height="2.54" fill="#4d4d4d"/>
    <g data-pin="D8" transform="translate(22.86, 0)">
      <rect x="0.27" y="0.27" width="2" height="2" fill="#d4af37"/>
      <rect width="2.54" height="2.54" class="area"/>
    </g>
    <g data-pin="D9" transform="translate(20.32, 0)">
      <rect x="0.27" y="0.27" width="2" height="2" fill="#d4af37"/>
      <rect width="2.54" height="2.54" class="area"/>
    </g>
    <g data-pin="D10" transform="translate(17.78, 0)">
      <rect x="0.27" y="0.27" width="2" height="2" fill="#d4af37"/>
      <rect width="2.54" height="2.54" class="area"/>
    </g>
    <g data-pin="D11" transform="translate(15.24, 0)">
      <rect x="0.27" y="0.27" width="2" height="2" fill="#d4af37"/>
      <rect width="2.54" height="2.54" class="area"/>
    </g>
    <g data-pin="D12" transform="translate(12.7, 0)">
      <rect x="0.27" y="0.27" width="2" height="2" fill="#d4af37"/>
      <rect width="2.54" height="2.54" class="area"/>
    </g>
    <g data-pin="D13" transform="translate(10.16, 0)">
      <rect x="0.27" y="0.27" width="2" height="2" fill="#d4af37"/>
      <rect width="2.54" height="2.54" class="area"/>
    </g>
  </g>
  <g transform="translate(49.55, 49.49)" fill="transparent">
    <rect width="15.24" height="2.54" fill="#4d4d4d" />
    <g data-pin="D14" transform="translate(0, 0)">
      <rect x="0.27" y="0.27" width="2" height="2" fill="#d4af37"/>
      <rect width="2.54" height="2.54" class="area"/>
    </g>
    <g data-pin="D15" transform="translate(2.54, 0)">
      <rect x="0.27" y="0.27" width="2" height="2" fill="#d4af37"/>
      <rect width="2.54" height="2.54" class="area"/>
    </g>
    <g data-pin="D16" transform="translate(5.08, 0)">
      <rect x="0.27" y="0.27" width="2" height="2" fill="#d4af37"/>
      <rect width="2.54" height="2.54" class="area"/>
    </g>
    <g data-pin="D17" transform="translate(7.62, 0)">
      <rect x="0.27" y="0.27" width="2" height="2" fill="#d4af37"/>
      <rect width="2.54" height="2.54" class="area"/>
    </g>
    <g data-pin="D18" transform="translate(10.16, 0)">
      <rect x="0.27" y="0.27" width="2" height="2" fill="#d4af37"/>
      <rect width="2.54" height="2.54" class="area"/>
    </g>
    <g data-pin="D19" transform="translate(12.7, 0)">
      <rect x="0.27" y="0.27" width="2" height="2" fill="#d4af37"/>
      <rect width="2.54" height="2.54" class="area"/>
    </g>
  </g>
  <rect
    x="27.96" y="49.49" width="20.32" height="2.54"
    fill="#4d4d4d" />

  <!-- LED -->
  <g data-part="led" transform="translate(61.4, 12.4)">
    <rect width="2.0" height="1.2" fill="black"/>
    <rect width="2.0" height="1.2" style="fill: var(--color, black); filter: drop-shadow(0 0 1px var(--shadow)) drop-shadow(0 0 1px var(--shadow));"/>
  </g>
</svg>
