<?xml version="1.0" encoding="UTF-8" standalone="no"?>

<!--
Based on a servo I have, and on this random datasheet I found:
http://www.ee.ic.ac.uk/pcheung/teaching/DE1_EE/stores/sg90_datasheet.pdf
This was also very useful for the dimensions:
https://digitalinit.be/servomoteur-sg90/
-->

<svg xmlns="http://www.w3.org/2000/svg" version="1.1" viewBox="-4.5 -12 39 24" width="39mm" height="24mm">

  <!-- control wire -->
  <g data-pin="control" transform="translate(31, 4)">
    <line x1="-8" y1="2" x2="2" y2="2" stroke="orange"/>
    <rect class="area" width="4" height="4" fill="transparent"/>
  </g>

  <!-- plastic enclosure -->
  <path fill="rgba(0, 0, 255, 0.7)" d="
  M -4.5 0
  L 27.5 0
  L 27.5 5.35
  L 26.5 5.35
  A 1 1 0 1 0 26.5 6.65
  L 27.5 6.65
  L 27.5 12
  L -4.5 12
  L -4.5 6.65
  L -3.5 6.65
  A 1 1 0 1 0 -3.5 5.35
  L -4.5 5.35
  Z
  "/>
  <rect width="23" height="12" fill="blue"/>

  <!-- shaft that moves -->
  <g style="transform: translate(17px, 6px) rotate(var(--rotation, 0deg)); transition: transform 50ms linear;">
    <!-- servo arm, first the arm itself and then 6 small holes -->
    <path fill="#ccc" fill-rule="evenodd" stroke="#888" stroke-width="0.2" d="
    M 3.5 0
    A 3.5 3.5 0 0 1 -3.5 0
    L -2 -15
    A 2 2 0 0 1 2 -15
    Z
    M 0.5 -15 a 0.5 0.5 0 0 1 -1 0 a 0.5 0.5 0 0 1 1 0 Z
    M 0.5 -13 a 0.5 0.5 0 0 1 -1 0 a 0.5 0.5 0 0 1 1 0 Z
    M 0.5 -11 a 0.5 0.5 0 0 1 -1 0 a 0.5 0.5 0 0 1 1 0 Z
    M 0.5 -9 a 0.5 0.5 0 0 1 -1 0 a 0.5 0.5 0 0 1 1 0 Z
    M 0.5 -7 a 0.5 0.5 0 0 1 -1 0 a 0.5 0.5 0 0 1 1 0 Z
    M 0.5 -5 a 0.5 0.5 0 0 1 -1 0 a 0.5 0.5 0 0 1 1 0 Z
    "/>

    <!-- screw on top of the servo arm -->
    <circle cx="0" cy="0" r="1.2" fill="#555"/>
    <line x1="-1" y1="0" x2="1" y2="0" stroke="black" stroke-width="0.3"/>
    <line x1="0" y1="-1" x2="0" y2="1" stroke="black" stroke-width="0.3"/>
  </g>

</svg>
