<?xml version="1.0" encoding="UTF-8" standalone="no"?>
<!--
Dimensions: https://learn.adafruit.com/adafruit-neopixel-uberguide/downloads#neopixel-8-stick-2894622
-->
<svg xmlns="http://www.w3.org/2000/svg" version="1.1" viewBox="-2 0 55.1 10.22" width="55.1mm" height="10.22mm">
  <!-- pins -->
  <g data-pin="din" transform="translate(-2, 3.11)">
    <line x1="0" y1="2" x2="2" y2="2" stroke="#d4af37" stroke-width="2"/>
    <rect class="area" width="2" height="4" fill="transparent"/>
  </g>
  <g data-pin="dout" transform="translate(51.1, 3.11)">
    <line x1="0" y1="2" x2="2" y2="2" stroke="#d4af37" stroke-width="2"/>
    <rect class="area" width="2" height="4" fill="transparent"/>
  </g>

  <!-- PCB, first the square background and then the two holes. -->
  <!-- Not sure how big the holes should be, they appear to be slightly larger than 2mmø -->
  <path fill="black" d="
    M 0 0 H 51.1 V 10.22 H 0 Z
    M 12.7 0.932 a 1.1 1.1 0 1 0 0.001 0 z
    M 38.1 0.932 a 1.1 1.1 0 1 0 0.001 0 z
    "/>

  <!-- WS2812 LEDs -->
  <g transform="translate(3.3, 6.2)">
    <g transform="translate(0)">
        <rect x="-2.5" y="-2.5" width="5" height="5" fill="white"/>
        <circle data-type="rgbled" r="2" fill="var(--color)" filter="drop-shadow(0 0 1px var(--shadow)) drop-shadow(0 0 1px var(--shadow))" style="will-change: filter"/>
    </g>
    <g transform="translate(6.35)">
        <rect x="-2.5" y="-2.5" width="5" height="5" fill="white"/>
        <circle data-type="rgbled" r="2" fill="var(--color)" filter="drop-shadow(0 0 1px var(--shadow)) drop-shadow(0 0 1px var(--shadow))" style="will-change: filter"/>
    </g>
    <g transform="translate(12.7)">
        <rect x="-2.5" y="-2.5" width="5" height="5" fill="white"/>
        <circle data-type="rgbled" r="2" fill="var(--color)" filter="drop-shadow(0 0 1px var(--shadow)) drop-shadow(0 0 1px var(--shadow))" style="will-change: filter"/>
    </g>
    <g transform="translate(19.05)">
        <rect x="-2.5" y="-2.5" width="5" height="5" fill="white"/>
        <circle data-type="rgbled" r="2" fill="var(--color)" filter="drop-shadow(0 0 1px var(--shadow)) drop-shadow(0 0 1px var(--shadow))" style="will-change: filter"/>
    </g>
    <g transform="translate(25.4)">
        <rect x="-2.5" y="-2.5" width="5" height="5" fill="white"/>
        <circle data-type="rgbled" r="2" fill="var(--color)" filter="drop-shadow(0 0 1px var(--shadow)) drop-shadow(0 0 1px var(--shadow))" style="will-change: filter"/>
    </g>
    <g transform="translate(31.75)">
        <rect x="-2.5" y="-2.5" width="5" height="5" fill="white"/>
        <circle data-type="rgbled" r="2" fill="var(--color)" filter="drop-shadow(0 0 1px var(--shadow)) drop-shadow(0 0 1px var(--shadow))" style="will-change: filter"/>
    </g>
    <g transform="translate(38.1)">
        <rect x="-2.5" y="-2.5" width="5" height="5" fill="white"/>
        <circle data-type="rgbled" r="2" fill="var(--color)" filter="drop-shadow(0 0 1px var(--shadow)) drop-shadow(0 0 1px var(--shadow))" style="will-change: filter"/>
    </g>
    <g transform="translate(44.45)">
        <rect x="-2.5" y="-2.5" width="5" height="5" fill="white"/>
        <circle data-type="rgbled" r="2" fill="var(--color)" filter="drop-shadow(0 0 1px var(--shadow)) drop-shadow(0 0 1px var(--shadow))" style="will-change: filter"/>
    </g>
  </g>
</svg>
