<?xml version="1.0" encoding="UTF-8" standalone="no"?>
<!--
Dimensions: https://learn.adafruit.com/adafruit-neopixel-uberguide/downloads#neopixel-16-led-ring-2894605
-->
<svg xmlns="http://www.w3.org/2000/svg" version="1.1" viewBox="0 0 44.5 44.5" width="44.5mm" height="44.5mm">

  <g transform="translate(22.25, 22.25)">
    <!-- PCB -->
    <circle r="19.05" stroke="black" fill="transparent" stroke-width="6.4"/>

    <!-- WS2812 LEDs -->
    <g transform="rotate(0) translate(0, -19.05)">
        <rect x="-2.5" y="-2.5" width="5" height="5" fill="white"/>
        <circle data-type="rgbled" r="2" fill="var(--color)" filter="drop-shadow(0 0 1px var(--shadow)) drop-shadow(0 0 1px var(--shadow))" style="will-change: filter"/>
    </g>
    <g transform="rotate(22.5) translate(0, -19.05)">
        <rect x="-2.5" y="-2.5" width="5" height="5" fill="white"/>
        <circle data-type="rgbled" r="2" fill="var(--color)" filter="drop-shadow(0 0 1px var(--shadow)) drop-shadow(0 0 1px var(--shadow))" style="will-change: filter"/>
    </g>
    <g transform="rotate(45) translate(0, -19.05)">
        <rect x="-2.5" y="-2.5" width="5" height="5" fill="white"/>
        <circle data-type="rgbled" r="2" fill="var(--color)" filter="drop-shadow(0 0 1px var(--shadow)) drop-shadow(0 0 1px var(--shadow))" style="will-change: filter"/>
    </g>
    <g transform="rotate(67.5) translate(0, -19.05)">
        <rect x="-2.5" y="-2.5" width="5" height="5" fill="white"/>
        <circle data-type="rgbled" r="2" fill="var(--color)" filter="drop-shadow(0 0 1px var(--shadow)) drop-shadow(0 0 1px var(--shadow))" style="will-change: filter"/>
    </g>
    <g transform="rotate(90) translate(0, -19.05)">
        <rect x="-2.5" y="-2.5" width="5" height="5" fill="white"/>
        <circle data-type="rgbled" r="2" fill="var(--color)" filter="drop-shadow(0 0 1px var(--shadow)) drop-shadow(0 0 1px var(--shadow))" style="will-change: filter"/>
    </g>
    <g transform="rotate(112.5) translate(0, -19.05)">
        <rect x="-2.5" y="-2.5" width="5" height="5" fill="white"/>
        <circle data-type="rgbled" r="2" fill="var(--color)" filter="drop-shadow(0 0 1px var(--shadow)) drop-shadow(0 0 1px var(--shadow))" style="will-change: filter"/>
    </g>
    <g transform="rotate(135) translate(0, -19.05)">
        <rect x="-2.5" y="-2.5" width="5" height="5" fill="white"/>
        <circle data-type="rgbled" r="2" fill="var(--color)" filter="drop-shadow(0 0 1px var(--shadow)) drop-shadow(0 0 1px var(--shadow))" style="will-change: filter"/>
    </g>
    <g transform="rotate(157.5) translate(0, -19.05)">
        <rect x="-2.5" y="-2.5" width="5" height="5" fill="white"/>
        <circle data-type="rgbled" r="2" fill="var(--color)" filter="drop-shadow(0 0 1px var(--shadow)) drop-shadow(0 0 1px var(--shadow))" style="will-change: filter"/>
    </g>
    <g transform="rotate(180) translate(0, -19.05)">
        <rect x="-2.5" y="-2.5" width="5" height="5" fill="white"/>
        <circle data-type="rgbled" r="2" fill="var(--color)" filter="drop-shadow(0 0 1px var(--shadow)) drop-shadow(0 0 1px var(--shadow))" style="will-change: filter"/>
    </g>
    <g transform="rotate(202.5) translate(0, -19.05)">
        <rect x="-2.5" y="-2.5" width="5" height="5" fill="white"/>
        <circle data-type="rgbled" r="2" fill="var(--color)" filter="drop-shadow(0 0 1px var(--shadow)) drop-shadow(0 0 1px var(--shadow))" style="will-change: filter"/>
    </g>
    <g transform="rotate(225) translate(0, -19.05)">
        <rect x="-2.5" y="-2.5" width="5" height="5" fill="white"/>
        <circle data-type="rgbled" r="2" fill="var(--color)" filter="drop-shadow(0 0 1px var(--shadow)) drop-shadow(0 0 1px var(--shadow))" style="will-change: filter"/>
    </g>
    <g transform="rotate(247.5) translate(0, -19.05)">
        <rect x="-2.5" y="-2.5" width="5" height="5" fill="white"/>
        <circle data-type="rgbled" r="2" fill="var(--color)" filter="drop-shadow(0 0 1px var(--shadow)) drop-shadow(0 0 1px var(--shadow))" style="will-change: filter"/>
    </g>
    <g transform="rotate(270) translate(0, -19.05)">
        <rect x="-2.5" y="-2.5" width="5" height="5" fill="white"/>
        <circle data-type="rgbled" r="2" fill="var(--color)" filter="drop-shadow(0 0 1px var(--shadow)) drop-shadow(0 0 1px var(--shadow))" style="will-change: filter"/>
    </g>
    <g transform="rotate(292.2) translate(0, -19.05)">
        <rect x="-2.5" y="-2.5" width="5" height="5" fill="white"/>
        <circle data-type="rgbled" r="2" fill="var(--color)" filter="drop-shadow(0 0 1px var(--shadow)) drop-shadow(0 0 1px var(--shadow))" style="will-change: filter"/>
    </g>
    <g transform="rotate(315) translate(0, -19.05)">
        <rect x="-2.5" y="-2.5" width="5" height="5" fill="white"/>
        <circle data-type="rgbled" r="2" fill="var(--color)" filter="drop-shadow(0 0 1px var(--shadow)) drop-shadow(0 0 1px var(--shadow))" style="will-change: filter"/>
    </g>
    <g transform="rotate(337.5) translate(0, -19.05)">
        <rect x="-2.5" y="-2.5" width="5" height="5" fill="white"/>
        <circle data-type="rgbled" r="2" fill="var(--color)" filter="drop-shadow(0 0 1px var(--shadow)) drop-shadow(0 0 1px var(--shadow))" style="will-change: filter"/>
    </g>

    <!-- pins -->
    <g data-pin="dout" transform="rotate(-11.25) translate(-2, -22.25)">
        <rect class="area" width="4" height="4" fill="transparent"/>
        <circle cx="2" cy="2" r="1.3" fill="#d4af37"/>
    </g>
    <g data-pin="din" transform="rotate(-56.25) translate(-2, -22.25)">
        <rect class="area" width="4" height="4" fill="transparent"/>
        <circle cx="2" cy="2" r="1.3" fill="#d4af37"/>
    </g>
  </g>
</svg>
